# xmcd
#
# Track frame offsets: 
#        150
#        5400
#        10164
#        21752
#        33337
#        45041
#        56528
#        68112
#        79691
#        92579
#        107828
#        119520
#        133285
#        146736
#        163748
#        180823
#        187144
#        205983
#        217569
#        229131
#        244701
#        252246
#        263760
#        280707
#        292459
#        304041
#
# Disc length: 4207 seconds
#
# Revision: 0
# Processed by: cddbd v1.5.2PL0 Copyright (c) Steve Scherf et al.
# Submitted via: ExactAudioCopy v0.95b4
#
DISCID=69106d1a
DTITLE=Steve Kaufman - Four Hour BLuegrass Workout Vol2 [CD1-Slow)
DYEAR=2008
DGENRE=Bluegrass
TTITLE0=Tuning Up the Guitar
TTITLE1=Tuning Up the Mandolin
TTITLE2=angeline the baker
TTITLE3=back up and push
TTITLE4=big scioty
TTITLE5=Bonaparte's Retreat
TTITLE6=bull durham
TTITLE7=cattle in the cane
TTITLE8=Cherokee Shuffle in the Key of A
TTITLE9=chinese breakdown
TTITLE10=Cold, Frosty Morn
TTITLE11=crazy creek
TTITLE12=denver belle
TTITLE13=dusty miller hornpipe
TTITLE14=farewell blues
TTITLE15=Fiddler's Dram, Give the Fiddler a Dram
TTITLE16=I Don't Love Nobody
TTITLE17=Indian Killed the Woodcock
TTITLE18=Jaybird, The
TTITLE19=jerusalem ridge
TTITLE20=john hardy
TTITLE21=leather britches
TTITLE22=Little Rabbit
TTITLE23=little rock getaway
TTITLE24=lonesome fiddle blues
TTITLE25=lost indian
EXTD=
EXTT0=
EXTT1=
EXTT2=
EXTT3=
EXTT4=
EXTT5=
EXTT6=
EXTT7=
EXTT8=
EXTT9=
EXTT10=
EXTT11=
EXTT12=
EXTT13=
EXTT14=
EXTT15=
EXTT16=
EXTT17=
EXTT18=
EXTT19=
EXTT20=
EXTT21=
EXTT22=
EXTT23=
EXTT24=
EXTT25=
PLAYORDER=
